<?xml version="1.0" encoding="UTF-8" standalone="no"?>
<svg
   xmlns:dc="http://purl.org/dc/elements/1.1/"
   xmlns:cc="http://creativecommons.org/ns#"
   xmlns:rdf="http://www.w3.org/1999/02/22-rdf-syntax-ns#"
   xmlns:svg="http://www.w3.org/2000/svg"
   xmlns="http://www.w3.org/2000/svg"
   xmlns:sodipodi="http://sodipodi.sourceforge.net/DTD/sodipodi-0.dtd"
   xmlns:inkscape="http://www.inkscape.org/namespaces/inkscape"
   id="Layer_1"
   height="512"
   viewBox="0 0 512 512"
   width="512"
   data-name="Layer 1"
   version="1.1"
   sodipodi:docname="dentist.svg"
   inkscape:version="0.92.2 5c3e80d, 2017-08-06">
  <metadata
     id="metadata13">
    <rdf:RDF>
      <cc:Work
         rdf:about="">
        <dc:format>image/svg+xml</dc:format>
        <dc:type
           rdf:resource="http://purl.org/dc/dcmitype/StillImage" />
      </cc:Work>
    </rdf:RDF>
  </metadata>
  <defs
     id="defs11" />
  <sodipodi:namedview
     pagecolor="#ffffff"
     bordercolor="#666666"
     borderopacity="1"
     objecttolerance="10"
     gridtolerance="10"
     guidetolerance="10"
     inkscape:pageopacity="0"
     inkscape:pageshadow="2"
     inkscape:window-width="738"
     inkscape:window-height="480"
     id="namedview9"
     showgrid="false"
     inkscape:zoom="0.4609375"
     inkscape:cx="256"
     inkscape:cy="256"
     inkscape:window-x="0"
     inkscape:window-y="0"
     inkscape:window-maximized="0"
     inkscape:current-layer="Layer_1" />
  <path
     d="m115.442 285.7c6.538 10.563 5.561 22.185 3.942 41.439-.251 2.986-.521 6.186-.784 9.627-5.625 73.565 13.815 121.934 33.883 142.669a11.33 11.33 0 0 0 3.477 1.629 8.288 8.288 0 0 0 11.2-9.357c-.031-.161-.055-.324-.072-.488a359.9 359.9 0 0 1 .112-62.519c4.054-46.658 16.31-82.733 36.428-107.222a28.821 28.821 0 0 1 44.451.242c19.728 24.616 31.731 60.685 35.674 107.208a363.581 363.581 0 0 1 .06 62.286c-.017.165-.041.33-.072.493a8.6 8.6 0 0 0 .55 5.04 8.51 8.51 0 0 0 10.652 4.315 11.1 11.1 0 0 0 3.492-1.642c20.053-20.722 39.493-69.09 33.868-142.655-.234-3.048-.469-5.91-.691-8.6-1.424-17.3-2.366-28.755 1.942-38.544-67.974-7.475-121.034-65.24-121.034-135.173a136.548 136.548 0 0 1 1.584-20.771c-1.706-.974-3.526-2.023-5.513-3.171-18.342-10.592-46.06-26.6-68.237-29.539-67.93-9.02-89.815 35.56-96.074 55.143a104.823 104.823 0 0 0 -1.264 58.322c5.2 18.806 15.45 33.078 28.875 40.185 25.009 13.239 37.231 20.869 43.551 31.083z"
     id="path2"
     style="fill:#43515f;fill-opacity:1" />
  <path
     d="m362.518 134.442v-44h-28v44a6 6 0 0 1 -6 6h-44v28h44a6 6 0 0 1 6 6v44h28v-44a6 6 0 0 1 6-6h44v-28h-44a6 6 0 0 1 -6-6z"
     id="path4"
     style="fill:#43515f;fill-opacity:1" />
  <path
     d="m348.518 30.442a124 124 0 1 0 124 124 124.14 124.14 0 0 0 -124-124zm76 144a6 6 0 0 1 -6 6h-44v44a6 6 0 0 1 -6 6h-40a6 6 0 0 1 -6-6v-44h-44a6 6 0 0 1 -6-6v-40a6 6 0 0 1 6-6h44v-44a6 6 0 0 1 6-6h40a6 6 0 0 1 6 6v44h44a6 6 0 0 1 6 6z"
     id="path6"
     style="fill:#43515f;fill-opacity:1" />
</svg>
