<?xml version="1.0" encoding="UTF-8" standalone="no"?>
<svg
   xmlns:dc="http://purl.org/dc/elements/1.1/"
   xmlns:cc="http://creativecommons.org/ns#"
   xmlns:rdf="http://www.w3.org/1999/02/22-rdf-syntax-ns#"
   xmlns:svg="http://www.w3.org/2000/svg"
   xmlns="http://www.w3.org/2000/svg"
   xmlns:sodipodi="http://sodipodi.sourceforge.net/DTD/sodipodi-0.dtd"
   xmlns:inkscape="http://www.inkscape.org/namespaces/inkscape"
   id="Layer_1"
   height="512"
   viewBox="0 0 512 512"
   width="512"
   data-name="Layer 1"
   version="1.1"
   sodipodi:docname="dental-care.svg"
   inkscape:version="0.92.2 5c3e80d, 2017-08-06">
  <metadata
     id="metadata15">
    <rdf:RDF>
      <cc:Work
         rdf:about="">
        <dc:format>image/svg+xml</dc:format>
        <dc:type
           rdf:resource="http://purl.org/dc/dcmitype/StillImage" />
      </cc:Work>
    </rdf:RDF>
  </metadata>
  <defs
     id="defs13" />
  <sodipodi:namedview
     pagecolor="#ffffff"
     bordercolor="#666666"
     borderopacity="1"
     objecttolerance="10"
     gridtolerance="10"
     guidetolerance="10"
     inkscape:pageopacity="0"
     inkscape:pageshadow="2"
     inkscape:window-width="847"
     inkscape:window-height="534"
     id="namedview11"
     showgrid="false"
     showguides="true"
     inkscape:guide-bbox="true"
     inkscape:zoom="0.4609375"
     inkscape:cx="61.687794"
     inkscape:cy="298.6684"
     inkscape:window-x="503"
     inkscape:window-y="241"
     inkscape:window-maximized="0"
     inkscape:current-layer="Layer_1">
    <sodipodi:guide
       position="423.05085,95.457627"
       orientation="0,1"
       id="guide3706"
       inkscape:locked="false" />
  </sodipodi:namedview>
  <path
     d="m214.647 81 25.453 3.7a6 6 0 0 1 4.518 3.283l11.382 23.057 11.382-23.063a6 6 0 0 1 4.518-3.283l25.453-3.694-18.418-17.957a6 6 0 0 1 -1.726-5.31l4.349-25.349-22.766 11.968a6.005 6.005 0 0 1 -5.584 0l-22.766-11.968 4.349 25.349a6 6 0 0 1 -1.726 5.31z"
     id="path2"
     style="fill:#43515f;fill-opacity:0.94117647" />
  <path
     d="m71.81 135.879 25.452 3.7a6 6 0 0 1 4.518 3.282l11.382 23.064 11.382-23.064a6 6 0 0 1 4.518-3.282l25.453-3.7-18.415-17.953a6 6 0 0 1 -1.726-5.31l4.349-25.349-22.769 11.968a6 6 0 0 1 -5.584 0l-22.765-11.968 4.348 25.349a6 6 0 0 1 -1.725 5.31z"
     id="path4"
     style="fill:#43515f;fill-opacity:0.94117647" />
  <path
     d="m357.485 135.879 25.453 3.7a6 6 0 0 1 4.518 3.282l11.382 23.064 11.382-23.064a6 6 0 0 1 4.518-3.282l25.452-3.7-18.418-17.953a6 6 0 0 1 -1.725-5.31l4.353-25.349-22.77 11.967a6 6 0 0 1 -5.584 0l-22.766-11.967 4.349 25.349a6 6 0 0 1 -1.726 5.31z"
     id="path6"
     style="fill:#43515f;fill-opacity:0.94117647" />
  <path
     d="m312.414 195.776c-14.207 3.873-21.454 8.368-29.847 13.571-3.973 2.464-8.3 5.144-13.634 7.881 12.851 5.035 23.482 6.529 32.868 4.695a6 6 0 0 1 2.3 11.778c-19.406 3.783-38.951-4.381-51.966-10.853-2.7-1.341-6.307-3.426-10.488-5.841-13.765-7.949-34.567-19.963-51.043-22.148-50.253-6.662-66.411 26.229-71.031 40.68-9.193 28.764.039 62.065 20.162 72.718 19.145 10.136 28.523 16.009 33.479 24.015 5.2 8.395 4.442 17.361 3.193 32.216-.189 2.254-.392 4.669-.592 7.266-2.759 36.1 2.4 83.045 25.124 106.626a9.433 9.433 0 0 0 2.13.947 4.8 4.8 0 0 0 6.553-5.412c-.031-.164-.056-.327-.072-.491-.363-3.452-8.474-85.058 27.942-129.384a23.248 23.248 0 0 1 35.874.2c35.706 44.551 27.683 125.748 27.324 129.182-.017.165-.042.33-.073.5a4.8 4.8 0 0 0 6.551 5.413 9.478 9.478 0 0 0 2.132-.948c22.731-23.583 27.884-70.525 25.124-106.626-.2-2.585-.4-4.989-.589-7.233-1.248-14.86-2-23.83 3.195-32.225 4.948-7.992 14.324-13.874 33.468-24.036 10.188-5.407 18.036-17.425 21.535-32.97a83.125 83.125 0 0 0 -3.485-47.714c-11.938-30.151-39.686-41.738-76.134-31.807z"
     id="path8"
     style="fill:#43515f;fill-opacity:0.94117647" />
</svg>
