<?xml version="1.0" encoding="UTF-8" standalone="no"?>
<svg
   xmlns:dc="http://purl.org/dc/elements/1.1/"
   xmlns:cc="http://creativecommons.org/ns#"
   xmlns:rdf="http://www.w3.org/1999/02/22-rdf-syntax-ns#"
   xmlns:svg="http://www.w3.org/2000/svg"
   xmlns="http://www.w3.org/2000/svg"
   xmlns:sodipodi="http://sodipodi.sourceforge.net/DTD/sodipodi-0.dtd"
   xmlns:inkscape="http://www.inkscape.org/namespaces/inkscape"
   id="Layer_1"
   height="512"
   viewBox="0 0 512 512"
   width="512"
   data-name="Layer 1"
   version="1.1"
   sodipodi:docname="implant.svg"
   inkscape:version="0.92.2 5c3e80d, 2017-08-06">
  <metadata
     id="metadata41">
    <rdf:RDF>
      <cc:Work
         rdf:about="">
        <dc:format>image/svg+xml</dc:format>
        <dc:type
           rdf:resource="http://purl.org/dc/dcmitype/StillImage" />
      </cc:Work>
    </rdf:RDF>
  </metadata>
  <defs
     id="defs39" />
  <sodipodi:namedview
     pagecolor="#ffffff"
     bordercolor="#666666"
     borderopacity="1"
     objecttolerance="10"
     gridtolerance="10"
     guidetolerance="10"
     inkscape:pageopacity="0"
     inkscape:pageshadow="2"
     inkscape:window-width="738"
     inkscape:window-height="480"
     id="namedview37"
     showgrid="false"
     inkscape:zoom="0.4609375"
     inkscape:cx="256"
     inkscape:cy="256"
     inkscape:window-x="0"
     inkscape:window-y="0"
     inkscape:window-maximized="0"
     inkscape:current-layer="Layer_1" />
  <path
     d="m332.99 424.145a6 6 0 0 0 -2.324-11.774l-29.595 5.841-1.386 12.506z"
     id="path2"
     style="fill:#43515f;fill-opacity:1" />
  <path
     d="m179 442.306a6 6 0 1 0 2.323 11.773l32.852-6.484-1.327-11.97z"
     id="path4"
     style="fill:#43515f;fill-opacity:1" />
  <path
     d="m179 413.144a6 6 0 1 0 2.323 11.773l29.689-5.859-1.327-11.97z"
     id="path6"
     style="fill:#43515f;fill-opacity:1" />
  <path
     d="m332.99 394.984a6 6 0 0 0 -2.324-11.774l-26.29 5.189-1.386 12.5z"
     id="path8"
     style="fill:#43515f;fill-opacity:1" />
  <path
     d="m332.99 365.821a6 6 0 0 0 -2.324-11.773l-22.985 4.537-1.387 12.5z"
     id="path10"
     style="fill:#43515f;fill-opacity:1" />
  <path
     d="m179 383.983a6 6 0 1 0 2.323 11.773l26.526-5.235-1.327-11.971z"
     id="path12"
     style="fill:#43515f;fill-opacity:1" />
  <path
     d="m179 354.82a6 6 0 1 0 2.323 11.774l23.362-4.611-1.327-11.97z"
     id="path14"
     style="fill:#43515f;fill-opacity:1" />
  <path
     d="m332.99 336.66a6 6 0 0 0 -2.324-11.773l-19.681 3.884-1.385 12.506z"
     id="path16"
     style="fill:#43515f;fill-opacity:1" />
  <path
     d="m179 325.659a6 6 0 1 0 2.323 11.774l20.2-3.987-1.327-11.97z"
     id="path18"
     style="fill:#43515f;fill-opacity:1" />
  <path
     d="m332.99 307.5a6 6 0 0 0 -2.324-11.773l-16.376 3.232-1.39 12.504z"
     id="path20"
     style="fill:#43515f;fill-opacity:1" />
  <path
     d="m215.467 459.251h81.055l3.163-28.533-85.51 16.877z"
     id="path22"
     style="fill:#43515f;fill-opacity:1" />
  <path
     d="m201.522 333.446 1.836 16.567 107.627-21.242 1.919-17.308z"
     id="path24"
     style="fill:#43515f;fill-opacity:1" />
  <path
     d="m367.413 164.319c9.782-5.191 17.322-16.745 20.687-31.7a80.056 80.056 0 0 0 -3.356-45.947c-11.482-29-38.184-40.142-73.261-30.58-13.688 3.732-20.674 8.064-28.764 13.08-3.738 2.318-7.8 4.834-12.77 7.407 12.178 4.712 22.272 6.1 31.193 4.356a6 6 0 1 1 2.3 11.778c-18.8 3.665-37.712-4.235-50.305-10.5-2.609-1.3-6.1-3.313-10.139-5.646-13.276-7.667-33.338-19.253-49.205-21.357-48.355-6.414-63.913 25.232-68.357 39.135-8.848 27.683.02 59.723 19.366 69.965 18.519 9.8 27.593 15.489 32.4 23.26 5.054 8.164 4.324 16.847 3.114 31.232-.183 2.175-.379 4.507-.571 7.014a228.167 228.167 0 0 0 2.108 53.427h148.232a215.822 215.822 0 0 0 2.388-53.427c-.191-2.5-.386-4.817-.568-6.983-1.209-14.39-1.939-23.076 3.114-31.239 4.803-7.75 13.875-13.444 32.394-23.275z"
     id="path26"
     style="fill:#43515f;fill-opacity:1" />
  <path
     d="m212.848 435.625 88.223-17.413 1.919-17.308-91.978 18.154z"
     id="path28"
     style="fill:#43515f;fill-opacity:1" />
  <path
     d="m315.144 291.25h-118.299l3.35 30.226 114.095-22.519z"
     id="path30"
     style="fill:#43515f;fill-opacity:1" />
  <path
     d="m209.685 407.088 94.691-18.689 1.918-17.309-98.445 19.431z"
     id="path32"
     style="fill:#43515f;fill-opacity:1" />
  <path
     d="m206.522 378.55 101.159-19.965 1.918-17.308-104.914 20.706z"
     id="path34"
     style="fill:#43515f;fill-opacity:1" />
</svg>
