<?xml version="1.0" encoding="UTF-8" standalone="no"?>
<svg
   xmlns:dc="http://purl.org/dc/elements/1.1/"
   xmlns:cc="http://creativecommons.org/ns#"
   xmlns:rdf="http://www.w3.org/1999/02/22-rdf-syntax-ns#"
   xmlns:svg="http://www.w3.org/2000/svg"
   xmlns="http://www.w3.org/2000/svg"
   xmlns:sodipodi="http://sodipodi.sourceforge.net/DTD/sodipodi-0.dtd"
   xmlns:inkscape="http://www.inkscape.org/namespaces/inkscape"
   id="Layer_1"
   height="512"
   viewBox="0 0 512 512"
   width="512"
   data-name="Layer 1"
   version="1.1"
   sodipodi:docname="dental-protect.svg"
   inkscape:version="0.92.2 5c3e80d, 2017-08-06">
  <metadata
     id="metadata13">
    <rdf:RDF>
      <cc:Work
         rdf:about="">
        <dc:format>image/svg+xml</dc:format>
        <dc:type
           rdf:resource="http://purl.org/dc/dcmitype/StillImage" />
      </cc:Work>
    </rdf:RDF>
  </metadata>
  <defs
     id="defs11" />
  <sodipodi:namedview
     pagecolor="#ffffff"
     bordercolor="#666666"
     borderopacity="1"
     objecttolerance="10"
     gridtolerance="10"
     guidetolerance="10"
     inkscape:pageopacity="0"
     inkscape:pageshadow="2"
     inkscape:window-width="766"
     inkscape:window-height="554"
     id="namedview9"
     showgrid="false"
     inkscape:zoom="0.4609375"
     inkscape:cx="256"
     inkscape:cy="256"
     inkscape:window-x="0"
     inkscape:window-y="0"
     inkscape:window-maximized="0"
     inkscape:current-layer="Layer_1" />
  <path
     d="m370.235 59.793a.226.226 0 0 0 -.052 0h-.105a75.9 75.9 0 0 0 -72.495 53.88 26.454 26.454 0 0 1 11.232-2.466h.132a26.429 26.429 0 0 1 18.619 7.629c.057.055.111.111.165.168q.813.864 1.54 1.769.729-.9 1.541-1.769c.083-.088.168-.174.257-.257a26.839 26.839 0 0 1 18.659-7.54h.131a26.431 26.431 0 0 1 18.62 7.629c.055.056.11.111.164.168q.813.864 1.541 1.77.727-.9 1.541-1.769c.082-.088.168-.173.255-.256a26.839 26.839 0 0 1 18.659-7.54h.132a26.431 26.431 0 0 1 18.62 7.629c.055.056.11.111.164.168q.813.864 1.54 1.769.729-.9 1.541-1.769c.083-.088.168-.174.257-.257a26.987 26.987 0 0 1 29.877-5.122 75.911 75.911 0 0 0 -72.535-53.834z"
     id="path2"
     style="fill:#43515f;fill-opacity:1" />
  <path
     d="m238.377 142.645c0-3.735.165-7.431.471-11.087a193.361 193.361 0 0 1 -17.982 9.945c1.369.58 2.722 1.138 4.054 1.661a6 6 0 0 1 -4.385 11.17c-5.152-2.022-10.488-4.414-16.313-7.312-3.5-1.741-8.241-4.477-13.725-7.644-18.278-10.556-45.9-26.506-68-29.437-67.661-8.982-89.476 35.432-95.711 54.941a104.426 104.426 0 0 0 -1.259 58.106c5.175 18.735 15.39 32.951 28.763 40.032 24.929 13.194 37.11 20.798 43.41 30.98 6.519 10.531 5.545 22.114 3.93 41.306-.25 2.975-.518 6.164-.78 9.592-5.605 73.3 13.764 121.494 33.758 142.153a11.289 11.289 0 0 0 3.456 1.617 8.46 8.46 0 0 0 10.589-4.29 8.554 8.554 0 0 0 .547-5.009c-.031-.162-.055-.325-.073-.489a358.661 358.661 0 0 1 .109-62.3c4.039-46.5 16.253-82.452 36.3-106.858a28.741 28.741 0 0 1 44.329.243c19.661 24.532 31.622 60.478 35.552 106.841a362.292 362.292 0 0 1 .06 62.072c-.017.165-.041.329-.072.493a8.237 8.237 0 0 0 11.135 9.3 11.059 11.059 0 0 0 3.47-1.631c19.99-20.651 39.354-68.84 33.75-142.14-.233-3.039-.468-5.889-.689-8.573-2.965-36.012-2.209-45.211 31.01-64.472-60.218-12.155-105.704-65.467-105.704-129.21z"
     id="path4"
     style="fill:#43515f;fill-opacity:1" />
  <path
     d="m370.183 22.838a119.806 119.806 0 1 0 119.807 119.807 119.942 119.942 0 0 0 -119.807-119.807zm87.824 112.781a6 6 0 0 1 -11.8 1.527c-.782-2.941-2.656-7.9-4.406-9.839a14.517 14.517 0 0 0 -10.146-4.1h-.072a14.194 14.194 0 0 0 -14.483 14.458 6 6 0 0 1 -12 0 15.1 15.1 0 0 0 -4.2-10.348 14.4 14.4 0 0 0 -10.229-4.108 14.194 14.194 0 0 0 -14.485 14.454v73.41a26.42 26.42 0 1 1 -52.839 0 6 6 0 0 1 12 0 14.42 14.42 0 1 0 28.839 0v-73.41a15.1 15.1 0 0 0 -4.2-10.348 14.516 14.516 0 0 0 -10.155-4.108h-.073a14.2 14.2 0 0 0 -14.486 14.456 6 6 0 0 1 -12 0 15.105 15.105 0 0 0 -4.2-10.349 14.648 14.648 0 0 0 -10.228-4.107 15.1 15.1 0 0 0 -10.313 4.139c-1.739 1.968-3.625 6.97-4.37 9.8a6 6 0 0 1 -11.8-1.524 87.873 87.873 0 0 1 87.715-87.83h.161a87.87 87.87 0 0 1 87.772 87.717z"
     id="path6"
     style="fill:#43515f;fill-opacity:1" />
</svg>
