<?xml version="1.0" encoding="UTF-8" standalone="no"?>
<svg
   xmlns:dc="http://purl.org/dc/elements/1.1/"
   xmlns:cc="http://creativecommons.org/ns#"
   xmlns:rdf="http://www.w3.org/1999/02/22-rdf-syntax-ns#"
   xmlns:svg="http://www.w3.org/2000/svg"
   xmlns="http://www.w3.org/2000/svg"
   xmlns:sodipodi="http://sodipodi.sourceforge.net/DTD/sodipodi-0.dtd"
   xmlns:inkscape="http://www.inkscape.org/namespaces/inkscape"
   id="Layer_1"
   height="512"
   viewBox="0 0 512 512"
   width="512"
   data-name="Layer 1"
   version="1.1"
   sodipodi:docname="healthcare-and-medical.svg"
   inkscape:version="0.92.2 5c3e80d, 2017-08-06">
  <metadata
     id="metadata27">
    <rdf:RDF>
      <cc:Work
         rdf:about="">
        <dc:format>image/svg+xml</dc:format>
        <dc:type
           rdf:resource="http://purl.org/dc/dcmitype/StillImage" />
      </cc:Work>
    </rdf:RDF>
  </metadata>
  <defs
     id="defs25" />
  <sodipodi:namedview
     pagecolor="#ffffff"
     bordercolor="#666666"
     borderopacity="1"
     objecttolerance="10"
     gridtolerance="10"
     guidetolerance="10"
     inkscape:pageopacity="0"
     inkscape:pageshadow="2"
     inkscape:window-width="738"
     inkscape:window-height="480"
     id="namedview23"
     showgrid="false"
     inkscape:zoom="0.4609375"
     inkscape:cx="256"
     inkscape:cy="256"
     inkscape:window-x="0"
     inkscape:window-y="0"
     inkscape:window-maximized="0"
     inkscape:current-layer="Layer_1" />
  <path
     d="m54.242 249.61c-.1 1.2-.209 2.479-.314 3.857-1.414 18.5 1.1 42.411 12.327 54.443l.133.052a1.222 1.222 0 0 1 -.021-.138c-.2-1.89-4.638-46.583 15.538-71.141a15.207 15.207 0 0 1 23.5.132c19.772 24.67 15.383 69.125 15.187 71.005-.005.045-.01.089-.016.134l.132-.05c11.224-12.034 13.736-35.941 12.322-54.437-.105-1.372-.212-2.649-.312-3.84-1.473-17.527-.048-21.542 21.049-32.741a16.377 16.377 0 0 0 5.473-4.939h-45.252v3.717a6 6 0 0 1 -6 6h-29.15a6 6 0 0 1 -6-6v-3.717h-45.261a17.089 17.089 0 0 0 5.609 4.936c21.106 11.175 22.531 15.19 21.056 32.727z"
     id="path2"
     style="fill:#43515f;fill-opacity:1" />
  <path
     d="m72.838 196.231a6 6 0 0 1 6-6h29.15a6 6 0 0 1 6 6v3.716h50.127a41.617 41.617 0 0 0 -2.007-22.635c-3.4-8.588-12.766-21.994-37.307-15.308a50.277 50.277 0 0 0 -15.2 6.924c-.591.367-1.2.743-1.825 1.125a23.5 23.5 0 0 0 10.084.466 6 6 0 0 1 2.3 11.778c-11.193 2.184-22.21-2.4-29.523-6.035-1.518-.754-3.48-1.887-5.752-3.2-6.723-3.883-17.974-10.38-26.22-11.474s-28.129-1.352-34.889 19.8a38.67 38.67 0 0 0 -1.176 18.559h50.238z"
     id="path4"
     style="fill:#43515f;fill-opacity:1" />
  <path
     d="m84.838 202.231h17.15v7.433h-17.15z"
     id="path6"
     style="fill:#43515f;fill-opacity:1" />
  <path
     d="m247.428 202.231h17.15v7.433h-17.15z"
     id="path8"
     style="fill:#43515f;fill-opacity:1" />
  <path
     d="m235.428 199.947v-3.716a6 6 0 0 1 6-6h29.15a6 6 0 0 1 6 6v3.716h50.127a41.618 41.618 0 0 0 -2.007-22.635c-3.4-8.588-12.765-22-37.308-15.308a50.281 50.281 0 0 0 -15.2 6.924c-.591.367-1.2.743-1.825 1.125a23.5 23.5 0 0 0 10.084.466 6 6 0 0 1 2.3 11.778c-11.189 2.184-22.21-2.4-29.523-6.035-1.518-.754-3.48-1.887-5.752-3.2-6.723-3.883-17.974-10.38-26.22-11.474s-28.13-1.352-34.889 19.8a38.645 38.645 0 0 0 -1.177 18.562z"
     id="path10"
     style="fill:#43515f;fill-opacity:1" />
  <path
     d="m316.352 216.886a16.377 16.377 0 0 0 5.473-4.939h-45.247v3.717a6 6 0 0 1 -6 6h-29.15a6 6 0 0 1 -6-6v-3.717h-45.261a17.1 17.1 0 0 0 5.608 4.936c21.107 11.175 22.532 15.19 21.057 32.727-.1 1.2-.209 2.479-.314 3.857-1.415 18.5 1.1 42.41 12.327 54.443l.133.053a1.317 1.317 0 0 1 -.021-.139c-.2-1.89-4.639-46.583 15.537-71.141a15.208 15.208 0 0 1 23.5.132c19.772 24.67 15.383 69.125 15.187 71.005 0 .045-.01.089-.016.134l.132-.05c11.224-12.034 13.736-35.941 12.322-54.437-.105-1.372-.212-2.649-.312-3.84-1.477-17.527-.052-21.542 21.045-32.741z"
     id="path12"
     style="fill:#43515f;fill-opacity:1" />
  <path
     d="m470.032 250.817c.046.564.092 1.136.138 1.735.79 10.332 1.97 45.485-16.018 64.07a11.655 11.655 0 0 1 -4.717 2.764 11.957 11.957 0 0 1 -3.9.654 11.711 11.711 0 0 1 -11.683-13.646c.273-2.986 3.477-41.973-12.633-62.075a3.212 3.212 0 0 0 -4.861-.018c-16.4 19.965-13.167 59.105-12.891 62.093a11.761 11.761 0 0 1 -15.591 12.991 11.648 11.648 0 0 1 -4.716-2.766c-17.985-18.583-16.805-53.736-16.015-64.067.107-1.411.217-2.723.321-3.947.565-6.718.767-9.765-.359-11.585-1.488-2.4-6.389-5.314-14.354-9.531-7.354-3.894-12.737-11.44-15.489-20.473-2.758 9.067-8.034 16.623-15.282 20.47-7.969 4.229-12.873 7.147-14.359 9.547-1.126 1.82-.924 4.868-.359 11.589.1 1.22.212 2.526.319 3.93.79 10.332 1.97 45.485-16.018 64.07a11.655 11.655 0 0 1 -4.717 2.764 11.953 11.953 0 0 1 -3.9.654 11.711 11.711 0 0 1 -11.683-13.646c.273-2.986 3.477-41.973-12.633-62.075a3.211 3.211 0 0 0 -4.86-.018c-16.4 19.965-13.167 59.105-12.892 62.093a11.76 11.76 0 0 1 -15.591 12.991 11.661 11.661 0 0 1 -4.716-2.766c-17.986-18.584-16.8-53.736-16.014-64.067.107-1.411.218-2.723.321-3.947.564-6.718.767-9.765-.359-11.585-1.489-2.4-6.39-5.314-14.355-9.531-7.354-3.894-12.737-11.44-15.489-20.473-2.757 9.067-8.034 16.623-15.282 20.47-7.969 4.229-12.872 7.147-14.359 9.547-1.126 1.82-.924 4.868-.359 11.589.1 1.22.212 2.526.319 3.93.79 10.332 1.97 45.485-16.017 64.07a11.683 11.683 0 0 1 -4.715 2.764 11.99 11.99 0 0 1 -3.9.654 11.711 11.711 0 0 1 -11.685-13.646c.273-2.986 3.477-41.973-12.633-62.075a3.211 3.211 0 0 0 -4.858-.02c-16.4 19.963-13.17 59.092-12.894 62.094a11.76 11.76 0 0 1 -15.59 12.992 11.672 11.672 0 0 1 -4.713-2.762c-17.988-18.586-16.808-53.739-16.018-64.071.049-.642.1-1.258.147-1.86a27.319 27.319 0 0 0 -10.12 21.238v79.87h448v-79.87a27.359 27.359 0 0 0 -9.968-21.113z"
     id="path14"
     style="fill:#43515f;fill-opacity:1" />
  <path
     d="m439.168 215.664a6 6 0 0 1 -6 6h-29.15a6 6 0 0 1 -6-6v-3.717h-45.262a17.109 17.109 0 0 0 5.609 4.936c21.107 11.175 22.531 15.19 21.056 32.727-.1 1.2-.209 2.479-.315 3.857-1.414 18.5 1.1 42.41 12.329 54.443l.131.052c-.007-.043-.014-.088-.019-.138-.2-1.89-4.639-46.583 15.537-71.141a15.208 15.208 0 0 1 23.5.132c19.772 24.67 15.383 69.125 15.187 71.005 0 .045-.01.089-.016.134l.132-.05c11.223-12.034 13.736-35.941 12.322-54.437-.1-1.372-.212-2.649-.312-3.84-.272-3.235-.444-6.007-.413-8.452a5.953 5.953 0 0 1 .094-2.192c.693-9.244 5.379-13.61 21.367-22.1a16.358 16.358 0 0 0 5.473-4.939h-45.25z"
     id="path16"
     style="fill:#43515f;fill-opacity:1" />
  <path
     d="m410.018 202.231h17.15v7.433h-17.15z"
     id="path18"
     style="fill:#43515f;fill-opacity:1" />
  <path
     d="m449.979 162a50.286 50.286 0 0 0 -15.2 6.924c-.592.367-1.2.743-1.825 1.125a23.5 23.5 0 0 0 10.084.466 6 6 0 0 1 2.3 11.778c-11.191 2.184-22.211-2.4-29.524-6.035-1.517-.754-3.479-1.887-5.752-3.2-6.722-3.883-17.973-10.38-26.219-11.474s-28.129-1.352-34.889 19.8a38.645 38.645 0 0 0 -1.177 18.562h50.238v-3.716a6 6 0 0 1 6-6h29.15a6 6 0 0 1 6 6v3.716h50.135a41.628 41.628 0 0 0 -2.007-22.635c-3.405-8.586-12.772-21.993-37.314-15.311z"
     id="path20"
     style="fill:#43515f;fill-opacity:1" />
</svg>
