<?xml version="1.0" encoding="UTF-8" standalone="no"?>
<svg
   xmlns:dc="http://purl.org/dc/elements/1.1/"
   xmlns:cc="http://creativecommons.org/ns#"
   xmlns:rdf="http://www.w3.org/1999/02/22-rdf-syntax-ns#"
   xmlns:svg="http://www.w3.org/2000/svg"
   xmlns="http://www.w3.org/2000/svg"
   xmlns:sodipodi="http://sodipodi.sourceforge.net/DTD/sodipodi-0.dtd"
   xmlns:inkscape="http://www.inkscape.org/namespaces/inkscape"
   id="Layer_1"
   height="512"
   viewBox="0 0 512 512"
   width="512"
   data-name="Layer 1"
   version="1.1"
   sodipodi:docname="periodontal.svg"
   inkscape:version="0.92.2 5c3e80d, 2017-08-06">
  <metadata
     id="metadata23">
    <rdf:RDF>
      <cc:Work
         rdf:about="">
        <dc:format>image/svg+xml</dc:format>
        <dc:type
           rdf:resource="http://purl.org/dc/dcmitype/StillImage" />
      </cc:Work>
    </rdf:RDF>
  </metadata>
  <defs
     id="defs21" />
  <sodipodi:namedview
     pagecolor="#ffffff"
     bordercolor="#666666"
     borderopacity="1"
     objecttolerance="10"
     gridtolerance="10"
     guidetolerance="10"
     inkscape:pageopacity="0"
     inkscape:pageshadow="2"
     inkscape:window-width="738"
     inkscape:window-height="480"
     id="namedview19"
     showgrid="false"
     inkscape:zoom="0.4609375"
     inkscape:cx="256"
     inkscape:cy="256"
     inkscape:window-x="0"
     inkscape:window-y="0"
     inkscape:window-maximized="0"
     inkscape:current-layer="Layer_1" />
  <path
     d="m247.863 172.537a6.005 6.005 0 0 0 5.916-7.041l-7.805-44.318a6 6 0 1 0 -11.819 2.081l7.806 44.318a6 6 0 0 0 5.902 4.96z"
     id="path2"
     style="fill:#43515f;fill-opacity:1" />
  <path
     d="m218.331 177.741a6 6 0 0 0 5.094-9.162l-14.186-22.886a6 6 0 1 0 -10.2 6.322l14.187 22.885a6 6 0 0 0 5.105 2.841z"
     id="path4"
     style="fill:#43515f;fill-opacity:1" />
  <path
     d="m277.054 133.749-5.512 26.351a6 6 0 1 0 11.746 2.456l5.512-26.355a6 6 0 0 0 -11.746-2.456z"
     id="path6"
     style="fill:#43515f;fill-opacity:1" />
  <path
     d="m115.009 392.238c-.141.089-.285.172-.434.249a1.456 1.456 0 0 0 .013 2.641 7.594 7.594 0 0 0 .856.489c21.823 2.027 48.772-14.885 66.779-31.451 1.312-1.207 2.525-2.34 3.657-3.4 16.363-15.283 20.532-16.68 48.146-4.5 14.388 6.344 38.223-5.269 49.047-23.9 6.288-10.824 12.731-32.022-14.773-52.382-7.944-5.88-13.355-7.844-19.619-10.119-1.991-.723-4.094-1.487-6.369-2.412 2.478 6.709 5.627 11.6 9.618 15.036a6 6 0 0 1 -7.828 9.1c-10.763-9.263-14.807-23.733-16.913-33.811-.437-2.091-.852-4.965-1.335-8.292-1.548-10.7-3.889-26.877-9.55-36.416-5.7-9.61-22-30.827-50.1-20.315-18.715 7-32.271 25.268-29.6 39.885 5.418 29.683 3.089 33.411-15.609 45.755-1.3.858-2.689 1.776-4.177 2.774-20.318 13.638-43.061 35.892-46.192 57.579a7.435 7.435 0 0 0 .274.945 1.456 1.456 0 0 0 2.566.632q.162-.187.341-.36c1.737-1.694 43.012-41.432 83.347-40.626a17.9 17.9 0 0 1 16.983 21.8c-9.06 39.094-57.088 69.81-59.128 71.099z"
     id="path8"
     style="fill:#43515f;fill-opacity:1" />
  <path
     d="m455.768 259.5c13.888-7.373 19.521-33.282 11.588-53.314-4.609-11.638-17.269-29.819-50.284-20.82-9.536 2.6-14.428 5.633-20.093 9.145-1.8 1.116-3.7 2.3-5.835 3.509 6.8 2.207 12.6 2.763 17.762 1.754a6 6 0 0 1 2.3 11.777c-13.936 2.722-27.805-3.06-37.024-7.644-1.912-.951-4.426-2.4-7.336-4.084-9.366-5.408-23.519-13.582-34.515-15.04-23.414-3.106-40.536 6.654-46.968 26.776-6.084 19.033-.13 40.986 13 47.938 26.666 14.117 28.153 18.255 26.276 40.58-.131 1.551-.271 3.212-.408 5-1.865 24.4 1.536 56.034 16.634 71.916a7.688 7.688 0 0 0 .91.369 1.608 1.608 0 0 0 1.986-.677 1.591 1.591 0 0 0 .1-.95c-.03-.162-.054-.325-.071-.488a190.853 190.853 0 0 1 .051-33.139c2.164-24.911 8.768-44.246 19.632-57.468a17.894 17.894 0 0 1 27.632.154c10.647 13.284 17.113 32.609 19.217 57.439a192.9 192.9 0 0 1 .027 33.01c-.018.165-.042.329-.073.492a1.456 1.456 0 0 0 2.082 1.628 7.423 7.423 0 0 0 .914-.37c15.1-15.88 18.5-47.517 16.632-71.916-.135-1.778-.275-3.431-.4-4.975-1.879-22.317-.393-26.456 26.264-40.602z"
     id="path10"
     style="fill:#43515f;fill-opacity:1" />
  <path
     d="m496.617 315.811c-15.993-6.832-36.03-12.932-59.555-18.131l-2.589 11.72c22.8 5.04 42.121 10.911 57.431 17.45a6 6 0 0 0 4.713-11.035z"
     id="path12"
     style="fill:#43515f;fill-opacity:1" />
  <path
     d="m82.3 296.551c-26.535 5.384-49.029 11.855-66.856 19.233a6 6 0 1 0 4.59 11.088c17.117-7.085 38.869-13.329 64.653-18.561z"
     id="path14"
     style="fill:#43515f;fill-opacity:1" />
  <path
     d="m288.625 286.882h30.542v12h-30.542z"
     id="path16"
     style="fill:#43515f;fill-opacity:1" />
</svg>
